<svg width="128" height="128" viewBox="0 0 128 128" fill="none" xmlns="http://www.w3.org/2000/svg">
<path d="M1.69995 98.5999C1.09995 98.2999 0.699951 97.5999 0.699951 96.7999C0.699951 95.5999 1.59995 94.6999 2.79995 94.6999C3.19995 94.6999 3.59995 94.7999 3.89995 94.9999C6.09995 96.4999 8.49995 97.1999 10.6 97.1999C12.9 97.1999 14.2 96.1999 14.2 94.6999V94.5999C14.2 92.7999 11.7 92.1999 8.99995 91.3999C5.59995 90.3999 1.79995 88.9999 1.79995 84.5999V84.4999C1.79995 80.0999 5.39995 77.4999 9.99995 77.4999C12.5 77.4999 14.9999 78.1999 17.2999 79.3999C17.9999 79.7999 18.6 80.4999 18.6 81.3999C18.6 82.5999 17.6 83.4999 16.4 83.4999C16 83.4999 15.7 83.3999 15.3 83.1999C13.4 82.1999 11.5 81.5999 9.89995 81.5999C7.79995 81.5999 6.69995 82.5999 6.69995 83.8999V83.9999C6.69995 85.6999 9.19995 86.3999 11.9 87.2999C15.3 88.2999 19.1 89.8999 19.1 93.9999V94.0999C19.1 98.9999 15.3 101.4 10.5 101.4C7.59995 101.4 4.39995 100.5 1.69995 98.5999ZM39.7999 89.4999C39.7999 84.9999 36.8 82.0999 33.2 82.0999C29.6 82.0999 26.5 85.0999 26.5 89.4999V89.5999C26.5 93.9999 29.6 96.9999 33.2 96.9999C36.8 96.7999 39.7999 93.9999 39.7999 89.4999ZM21.4 80.1999C21.4 78.6999 22.5 77.4999 24 77.4999C25.5 77.4999 26.7 78.6999 26.7 80.1999V81.7999C28.4 79.3999 30.8 77.4999 34.5 77.4999C39.9 77.4999 45.2 81.7999 45.2 89.3999V89.4999C45.2 97.0999 40 101.4 34.5 101.4C30.7 101.4 28.3 99.4999 26.7 97.3999V105.5C26.7 107 25.5 108.1 24 108.1C22.6 108.1 21.4 107 21.4 105.5V80.1999ZM47.4 80.0999C47.4 78.5999 48.5 77.3999 50 77.3999C51.5 77.3999 52.7 78.5999 52.7 80.0999V81.3999C53 79.3999 56.2 77.4999 58.5 77.4999C60.2 77.4999 61.0999 78.5999 61.0999 80.0999C61.0999 81.4999 60.2 82.3999 59 82.5999C55.2 83.2999 52.5999 86.4999 52.5999 91.0999V98.6999C52.5999 100.1 51.4 101.3 49.9 101.3C48.5 101.3 47.2999 100.2 47.2999 98.6999V80.0999M63.5 80.0999C63.5 78.5999 64.7 77.3999 66.2 77.3999C67.7 77.3999 68.9 78.5999 68.9 80.0999V98.6999C68.9 100.2 67.7 101.3 66.2 101.3C64.7 101.3 63.5 100.2 63.5 98.6999V80.0999ZM71.2 80.1999C71.2 78.6999 72.4 77.4999 73.9 77.4999C75.4 77.4999 76.7 78.6999 76.7 80.1999V81.2999C78.2 79.1999 80.5 77.4999 84.2 77.4999C89.6 77.4999 92.7 80.9999 92.7 86.2999V98.6999C92.7 100.2 91.5 101.3 90 101.3C88.5 101.3 87.2 100.2 87.2 98.6999V87.8999C87.2 84.2999 85.3 82.2999 82.1 82.2999C78.9 82.2999 76.7 84.3999 76.7 87.9999V98.6999C76.7 100.2 75.5 101.3 73.9 101.3C72.4 101.3 71.2 100.2 71.2 98.6999V80.1999ZM106.5 96.8999C102.8 96.8999 99.7 94.0999 99.7 89.4999V89.3999C99.7 84.8999 102.8 81.9999 106.5 81.9999C110.2 81.9999 113.4 84.9999 113.4 89.3999V89.4999C113.4 93.8999 110.2 96.8999 106.5 96.8999ZM116 77.5999C114.5 77.5999 113.3 78.7999 113.3 80.2999V81.8999C111.5 79.4999 109.1 77.5999 105.2 77.5999C99.6 77.5999 94.2 81.8999 94.2 89.5999V89.6999C94.2 97.2999 99.6 101.7 105.2 101.7C109.1 101.7 111.6 99.7999 113.3 97.6999C113 101.9 110.4 104 105.8 104C103.1 104 100.7 103.3 98.5 102.2C98.2 102.1 97.9 102 97.5 102C96.2 102 95.2 103 95.2 104.2C95.2 105.2 95.8 105.9 96.7 106.3C99.6 107.7 102.5 108.4 105.9 108.4C110.2 108.4 113.5 107.4 115.7 105.3C117.7 103.4 118.8 100.5 118.8 96.5999V80.1999C118.7 78.6999 117.5 77.5999 116 77.5999ZM68.9 71.0999C68.9 72.4999 67.7 73.6999 66.2 73.6999C64.7 73.6999 63.5 72.4999 63.5 71.0999C63.5 69.6999 64.7 68.4999 66.2 68.4999C67.7 68.4999 68.9 69.6999 68.9 71.0999ZM82.9 53.7999C77 61.5999 64.2999 58.9999 56.0999 59.2999C56.0999 59.2999 54.7 59.3999 53.2 59.5999C53.2 59.5999 53.8 59.3999 54.4 59.0999C60.1 57.1999 62.8 56.7999 66.3 54.9999C72.8 51.6999 79.3 44.5999 80.6 37.1999C78.1 44.2999 70.6 50.3999 63.7 52.8999C59 54.5999 50.5 56.1999 50.5 56.1999L50.2 55.9999C44.4 53.2999 44.1999 40.9999 54.7999 37.0999C59.3999 35.3999 63.8 36.2999 68.8 35.1999C74.1 33.9999 80.3 30.0999 82.8 24.9999C85.6 33.2999 89 45.9999 82.9 53.7999ZM83 22.5999C82.3 24.1999 81.4 25.6999 80.4 26.9999C76 22.5999 69.8999 19.8999 63.0999 19.8999C49.7999 19.8999 39 30.4999 39 43.3999C39 50.1999 42 56.2999 46.7 60.5999L47.2 61.0999C46.3 60.3999 46.2 59.0999 46.9 58.2999C47.6 57.3999 48.8999 57.2999 49.7999 57.9999C50.6999 58.6999 50.7999 59.9999 50.0999 60.7999C49.3999 61.6999 48.1 61.7999 47.2 61.0999L47.5999 61.3999C51.7999 64.7999 57.1999 66.8999 63.0999 66.8999C75.7999 66.8999 86.2 57.1999 87.1 45.0999C87.9 39.1999 86.1 31.5999 83 22.5999ZM125.1 79.1999H124.2V80.3999H125.1C125.4 80.3999 125.7 80.1999 125.7 79.7999C125.7 79.3999 125.4 79.1999 125.1 79.1999ZM125.6 82.1999L124.7 80.7999H124.1V82.1999H123.6V78.7999H125C125.6 78.7999 126.1 79.1999 126.1 79.7999C126.1 80.5999 125.4 80.7999 125.2 80.7999L126.1 82.1999H125.6ZM124.8 77.8999C123.4 77.8999 122.2 78.9999 122.2 80.3999C122.2 81.7999 123.4 82.8999 124.8 82.8999C126.2 82.8999 127.4 81.7999 127.4 80.3999C127.4 79.0999 126.2 77.8999 124.8 77.8999ZM124.8 83.4999C123.1 83.4999 121.7 82.1999 121.7 80.4999C121.7 78.7999 123.1 77.4999 124.8 77.4999C126.5 77.4999 127.9 78.7999 127.9 80.4999C127.9 82.0999 126.5 83.4999 124.8 83.4999Z" fill="#5FB832"/>
</svg>
