<svg width="128" height="128" viewBox="0 0 128 128" fill="none" xmlns="http://www.w3.org/2000/svg">
<path d="M64 56.8002C69.1362 56.8002 73.3 52.6364 73.3 47.5002C73.3 42.3639 69.1362 38.2002 64 38.2002C58.8637 38.2002 54.7 42.3639 54.7 47.5002C54.7 52.6364 58.8637 56.8002 64 56.8002Z" fill="#61DAFB"/>
<path d="M64 81.7001C71.3 88.8001 78.5 93.0001 84.3 93.0001C86.2 93.0001 88 92.6001 89.5 91.7001C94.7 88.7001 96.6 81.2001 94.8 70.5001C94.5 68.6001 94.1 66.7001 93.6 64.7001C95.6 64.1001 97.4 63.5001 99.2 62.9001C109.3 59.0001 114.9 53.6001 114.9 47.7001C114.9 41.7001 109.3 36.3001 99.2 32.5001C97.4 31.8001 95.6 31.2001 93.6 30.7001C94.1 28.7001 94.5 26.8001 94.8 24.9001C96.5 14.0001 94.6 6.4001 89.4 3.4001C87.9 2.5001 86.1 2.1001 84.2 2.1001C78.5 2.1001 71.2 6.3001 63.9 13.4001C56.7 6.3001 49.5 2.1001 43.7 2.1001C41.8 2.1001 40 2.5001 38.5 3.4001C33.3 6.4001 31.4 13.9001 33.2 24.6001C33.5 26.5001 33.9 28.4001 34.4 30.4001C32.4 31.0001 30.6 31.6001 28.8 32.2001C18.7 36.1001 13.1 41.5001 13.1 47.4001C13.1 53.4001 18.7 58.8001 28.8 62.6001C30.6 63.3001 32.4 63.9001 34.4 64.4001C33.9 66.4001 33.5 68.3001 33.2 70.2001C31.5 80.9001 33.4 88.5001 38.5 91.4001C40 92.3001 41.8 92.7001 43.7 92.7001C49.5 92.9001 56.7 88.7001 64 81.7001ZM58.4 68.2001C60.2 68.3001 62.1 68.3001 64 68.3001C65.9 68.3001 67.8 68.3001 69.6 68.2001C67.8 70.6001 65.9 72.8001 64 74.9001C62.1 72.8001 60.2 70.6001 58.4 68.2001ZM46 57.9001C47 59.6001 47.9 61.2001 49 62.8001C45.9 62.4001 43 61.9001 40.2 61.3001C41.1 58.6001 42.1 55.8001 43.3 53.0001C44.1 54.6001 45 56.3001 46 57.9001ZM40.2 33.8001C43 33.2001 45.9 32.7001 49 32.3001C48 33.9001 47 35.5001 46 37.2001C45 38.9001 44.1 40.5001 43.3 42.2001C42 39.3001 41 36.5001 40.2 33.8001ZM45.7 47.5001C47 44.8001 48.4 42.1001 50 39.4001C51.5 36.8001 53.2 34.2001 54.9 31.6001C57.9 31.4001 60.9 31.3001 64 31.3001C67.2 31.3001 70.2 31.4001 73.1 31.6001C74.9 34.2001 76.5 36.8001 78 39.4001C79.6 42.1001 81 44.8001 82.3 47.5001C81 50.2001 79.6 52.9001 78 55.6001C76.5 58.2001 74.8 60.8001 73.1 63.4001C70.1 63.6001 67.1 63.7001 64 63.7001C60.8 63.7001 57.8 63.6001 54.9 63.4001C53.1 60.8001 51.5 58.2001 50 55.6001C48.4 52.9001 47 50.2001 45.7 47.5001ZM84.8 42.1001L82.1 37.1001C81.1 35.4001 80.2 33.8001 79.1 32.2001C82.2 32.6001 85.1 33.1001 87.9 33.7001C87 36.5001 86 39.3001 84.8 42.1001ZM84.8 52.9001C86 55.7001 87 58.5001 87.9 61.2001C85.1 61.8001 82.2 62.3001 79.1 62.7001C80.1 61.1001 81.1 59.5001 82.1 57.8001C83 56.3001 83.9 54.6001 84.8 52.9001ZM87.1 87.6001C86.3 88.1001 85.3 88.3001 84.2 88.3001C79.3 88.3001 73.2 84.3001 67.2 78.3001C70.1 75.2001 72.9 71.7001 75.7 67.8001C80.4 67.4001 84.9 66.7001 89.1 65.7001C89.6 67.5001 89.9 69.3001 90.2 71.1001C91.6 79.6001 90.5 85.7001 87.1 87.6001ZM92.3 34.9001C103.5 38.1001 110.2 43.0001 110.2 47.5001C110.2 51.4001 105.6 55.3001 97.5 58.4001C95.9 59.0001 94.1 59.6001 92.3 60.1001C91 56.0001 89.4 51.8001 87.4 47.5001C89.4 43.2001 91.1 39.0001 92.3 34.9001ZM84.3 6.7001C85.4 6.7001 86.3 6.9001 87.2 7.4001C90.5 9.3001 91.7 15.3001 90.3 23.9001C90 25.6001 89.6 27.4001 89.2 29.3001C85 28.4001 80.5 27.7001 75.8 27.2001C73.1 23.3001 70.2 19.8001 67.3 16.7001C73.3 10.8001 79.4 6.7001 84.3 6.7001ZM69.6 26.8001C67.8 26.7001 65.9 26.7001 64 26.7001C62.1 26.7001 60.2 26.7001 58.4 26.8001C60.2 24.4001 62.1 22.2001 64 20.1001C65.9 22.2001 67.8 24.5001 69.6 26.8001ZM40.9 7.4001C41.7 6.9001 42.7 6.7001 43.8 6.7001C48.7 6.7001 54.8 10.7001 60.8 16.7001C57.9 19.8001 55.1 23.3001 52.3 27.2001C47.6 27.6001 43.1 28.3001 38.9 29.3001C38.4 27.5001 38.1 25.7001 37.8 23.9001C36.4 15.4001 37.5 9.4001 40.9 7.4001ZM35.7 60.1001C24.5 56.9001 17.8 52.0001 17.8 47.5001C17.8 43.6001 22.4 39.7001 30.5 36.6001C32.1 36.0001 33.9 35.4001 35.7 34.9001C37 39.0001 38.6 43.2001 40.6 47.5001C38.6 51.8001 36.9 56.1001 35.7 60.1001ZM37.8 71.1001C38.1 69.4001 38.5 67.6001 38.9 65.7001C43.1 66.6001 47.6 67.3001 52.3 67.8001C55 71.7001 57.9 75.2001 60.8 78.3001C54.8 84.2001 48.7 88.3001 43.8 88.3001C42.7 88.3001 41.8 88.1001 40.9 87.6001C37.5 85.7001 36.4 79.6001 37.8 71.1001ZM33.6 112.3C35.8 109.6 35.9 106.6 34.7 103.6C33.5 100.6 31 99.2001 27.9 99.1001C24.2 99.0001 20.4 99.1001 16.7 99.1001H16V125H19V115.2H23.7C24.3 115.2 24.8 115.4 25.1 115.9L31.1 125.2C31.2 125.4 31.5 125.7 31.7 125.7H35.6C33.2 122 30.9 118.5 28.5 114.9C30.6 114.6 32.4 113.9 33.6 112.3ZM19 112.1V102.2H20.1C22.4 102.2 24.8 102.1 27.1 102.3C29.8 102.4 31.7 104.5 31.7 107.2C31.7 109.9 29.5 112 26.8 112.1C24.4 112.2 22 112.1 19 112.1ZM57.7 113.4C56.1 106.4 49.7 104.6 44.8 106.8C41 108.5 39.3 111.8 39.2 115.9C39.1 119 40 121.8 42.4 123.9C45.1 126.3 48.4 126.6 51.8 126C53.7 125.6 55.4 124.7 56.7 123.3C56.2 122.6 55.7 121.9 55.2 121.3C52.4 123.7 49.3 124.5 45.9 122.9C43.7 121.8 42.6 119.1 42.4 117.1H57.9V115.8C58 114.9 57.9 114.1 57.7 113.4ZM42.6 115C42.3 112 45.3 108.8 48.6 108.8C52.4 108.7 54.8 111 54.9 115H42.6ZM73.3 106.3C71.8 106 70.2 105.9 68.7 106C66.3 106.2 64.2 107.3 62.5 109.1C63 109.8 63.4 110.5 64 111.3C64.2 111.1 64.4 110.9 64.6 110.8C66.2 109.3 68.1 108.5 70.4 108.7C72.2 108.8 73.9 109.4 74.4 111.2C74.8 112.6 74.7 114.1 74.8 115.6C74.5 115.6 74.4 115.5 74.3 115.4C71.9 113.4 69.2 113 66.3 113.7C63.6 114.4 61.9 116.5 61.7 119.2C61.5 122.3 62.9 124.6 65.6 125.7C67.3 126.4 69.2 126.4 71 126C72.4 125.7 73 124.9 75 123.8V125.1H77.8C77.8 121.1 77.9 116.2 77.8 111.6C77.8 108.7 76.1 106.9 73.3 106.3ZM74.7 118.9C74.6 119.2 74.7 119.5 74.7 119.8C74.7 121.9 74.2 122.6 72.2 123.4C70.8 123.9 69.3 124.1 67.8 123.6C66.1 123.1 64.9 121.6 64.9 119.9C64.8 118.2 65.9 116.5 67.6 116C69.9 115.2 72 115.7 73.9 117.1C74.5 117.6 74.9 118.1 74.7 118.9ZM90.3 109C92.9 108.2 95.3 108.7 97.1 110.9L97.4 111.1C98.1 110.5 98.7 109.9 99.5 109.2C99.2 108.9 99.1 108.7 98.9 108.4C96 105.3 90.3 104.9 86.8 107.4C81.9 111 82 118 84.4 121.7C86.7 125.2 90 126.4 93.9 125.9C96.2 125.6 98.1 124.5 99.6 122.6C98.9 122 98.2 121.4 97.5 120.7C97.3 120.9 97.2 121 97.1 121.2C94.4 124.2 89.9 123.9 87.5 120.7C86.1 118.8 85.8 116.6 86.2 114.4C86.4 111.9 87.7 109.9 90.3 109ZM111.1 122.6C110.9 122.7 110.8 122.8 110.8 122.8C110 123.4 109.2 123.5 108.3 123.2C107.4 122.8 107.3 122 107.2 121.2V109.8C107.2 109.6 107.2 110 107.3 109H111.1V106H107.1V101H104.1V106.4H101.5C101.3 106.4 101 106.6 101 106.8C100.9 107.5 101 108 101 109H104.2V121.8C104.2 123.4 104.6 124.8 106 125.6C107.5 126.5 110.4 126.3 111.7 125.2C111.9 125.1 112 124.7 112 124.6C111.7 124 111.4 123.3 111.1 122.6Z" fill="#61DAFB"/>
</svg>
